<?xml version="1.0" encoding="utf-8"?>
<svg fill="#000000" role="img" viewBox="0 0 102 24" style="" xmlns="http://www.w3.org/2000/svg" xmlns:bx="https://boxy-svg.com">
  <defs>
    <style bx:fonts="Coustard">@import url(https://fonts.googleapis.com/css2?family=Coustard%3Aital%2Cwght%400%2C400%3B0%2C900&amp;display=swap);</style>
    <linearGradient id="gradient-1" bx:pinned="true">
      <title>inkscape</title>
      <stop offset="0" style="stop-color: rgb(65, 65, 65);"/>
      <stop offset="1" style="stop-color: rgb(201, 201, 201);"/>
    </linearGradient>
    <linearGradient id="gradient-2" bx:pinned="true">
      <stop offset="0.516" style="stop-color: rgb(255, 255, 255);"/>
    </linearGradient>
    <linearGradient id="color-0" bx:pinned="true">
      <stop style="stop-color: #8e2de2;" offset="0"/>
      <stop style="stop-color: #4a00e0;" offset="1"/>
    </linearGradient>
    <linearGradient id="color-1" bx:pinned="true">
      <stop style="stop-color: #00f260;" offset="0"/>
      <stop style="stop-color: #0575e6;" offset="1"/>
    </linearGradient>
    <linearGradient id="gradient-3" bx:pinned="true">
      <stop offset="0" style="stop-color: rgb(101, 193, 0);"/>
      <stop offset="1" style="stop-color: rgb(255, 255, 255);"/>
    </linearGradient>
    <linearGradient gradientUnits="userSpaceOnUse" x1="-51.102" y1="-24" x2="-51.102" y2="0" id="gradient-0">
      <stop offset="0" style="stop-color: rgb(0% 0% 0%)"/>
      <stop offset="1" style="stop-color: rgb(0% 0% 0%)"/>
    </linearGradient>
  </defs>
  <title>Inkscape</title>
  <rect width="102" height="24" style="stroke-linejoin: round; stroke-linecap: round; transform-box: fill-box; transform-origin: 50% 50%; stroke: url('#gradient-0'); stroke-width: 0px; stroke-dashoffset: 174.16px; stroke-dasharray: 4; fill-rule: nonzero; fill-opacity: 0.5; paint-order: stroke; filter: none; fill: rgb(255, 255, 255);" transform="matrix(-1, 0, 0, -1, 102.203003, 24)" x="-102" y="-24"/>
  <path d="M 8.71 14.179 C 8.89 14.291 11.608 14.844 12.273 14.954 C 12.503 15.002 12.339 15.239 12.022 15.399 C 11.306 15.59 7.834 14.179 8.71 14.179 L 8.71 14.179 Z M 12.997 4.11 L 15.658 6.812 C 15.91 7.071 15.907 7.57 15.765 7.714 L 14.444 6.657 L 14.185 8.221 L 13.08 7.639 L 11.313 8.755 L 10.728 6.402 L 9.778 8.045 L 8.326 8.045 C 7.733 8.045 7.664 7.293 8.202 6.755 C 9.141 5.742 10.219 4.709 10.805 4.11 C 11.394 3.508 12.42 3.525 12.997 4.11 L 12.997 4.11 Z M 10.319 3.626 L 3.593 10.509 C 1.321 13.323 5.14 12.996 6.777 13.806 C 7.365 14.406 4.526 14.85 5.114 15.45 C 5.7 16.051 8.665 16.607 9.253 17.207 C 9.84 17.807 8.051 18.444 8.638 19.044 C 9.225 19.645 10.584 19.076 10.838 20.462 C 11.019 21.452 13.286 20.887 14.394 20.076 C 14.982 19.476 13.271 19.532 13.858 18.932 C 15.318 17.438 16.679 18.39 17.178 16.893 C 17.425 16.153 15.028 15.753 15.617 15.153 C 17.306 14.166 23.147 13.523 20.375 10.752 L 13.404 3.626 C 12.552 2.808 11.128 2.799 10.32 3.626 L 10.319 3.626 Z M 18.045 16.893 C 18.045 17.234 20.561 17.458 20.561 16.812 C 20.203 15.775 18.343 15.845 18.045 16.893 Z M 6.712 18.707 C 7.308 19.222 8.228 18.579 8.504 17.86 C 7.927 17.093 5.766 17.888 6.712 18.707 Z M 17.729 17.594 C 16.962 18.283 17.816 18.982 18.573 18.537 C 18.741 18.366 18.568 17.766 17.73 17.594 L 17.729 17.594 Z" style=""/>
  <text style="font-family: Coustard; font-size: 17px; white-space: pre;" x="26" y="17.5">Inkscape </text>
</svg>
